HIERARCHY
ROOT Hips
{
	OFFSET 0.000000 0.000000 0.000000
	CHANNELS 6 Xposition Yposition Zposition Xrotation Yrotation Zrotation
	JOINT LeftUpLeg_virtual
	{
		OFFSET 0.000000 0.000000 0.000000
		CHANNELS 3 Xrotation Yrotation Zrotation
		JOINT LeftUpLeg
		{
			OFFSET 15.427100 -6.655098 0.678600
			CHANNELS 3 Xrotation Yrotation Zrotation
			JOINT LeftLeg
			{
				OFFSET 4.081073 -39.591068 13.024000
				CHANNELS 3 Xrotation Yrotation Zrotation
				JOINT LeftFoot
				{
					OFFSET -4.081074 -37.707932 -15.979700
					CHANNELS 3 Xrotation Yrotation Zrotation
					JOINT LeftToeBase
					{
						OFFSET 5.346399 -15.068900 20.645000
						CHANNELS 3 Xrotation Yrotation Zrotation
						JOINT LeftToe_End
						{
							OFFSET 2.754700 0.931300 11.300900
							CHANNELS 3 Xrotation Yrotation Zrotation
							End Site
							{
								OFFSET 0 0 0
							}
						}
					}
				}
			}
		}
	}
	JOINT RightUpLeg_virtual
	{
		OFFSET 0.000000 0.000000 0.000000
		CHANNELS 3 Xrotation Yrotation Zrotation
		JOINT RightUpLeg
		{
			OFFSET -15.569500 -6.655098 0.678600
			CHANNELS 3 Xrotation Yrotation Zrotation
			JOINT RightLeg
			{
				OFFSET -4.081825 -39.591045 13.023800
				CHANNELS 3 Xrotation Yrotation Zrotation
				JOINT RightFoot
				{
					OFFSET 4.081824 -37.707954 -15.979600
					CHANNELS 3 Xrotation Yrotation Zrotation
					JOINT RightToeBase
					{
						OFFSET -5.346400 -15.068900 20.645000
						CHANNELS 3 Xrotation Yrotation Zrotation
						JOINT RightToe_End
						{
							OFFSET -2.754700 0.931300 11.300900
							CHANNELS 3 Xrotation Yrotation Zrotation
							End Site
							{
								OFFSET 0 0 0
							}
						}
					}
				}
			}
		}
	}
	JOINT Spine_virtual
	{
		OFFSET 0.000000 0.000000 0.000000
		CHANNELS 3 Xrotation Yrotation Zrotation
		JOINT Spine
		{
			OFFSET -0.279200 12.230698 -2.892100
			CHANNELS 3 Xrotation Yrotation Zrotation
			JOINT Spine1
			{
				OFFSET -0.232667 10.192268 -1.242267
				CHANNELS 3 Xrotation Yrotation Zrotation
				JOINT Spine1_split
				{
					OFFSET -0.232667 10.192268 -1.242267
					CHANNELS 3 Xrotation Yrotation Zrotation
					JOINT Spine2
					{
						OFFSET -0.232667 10.192268 -1.242267
						CHANNELS 3 Xrotation Yrotation Zrotation
						JOINT Neck_virtual
						{
							OFFSET 0.000000 0.000000 0.000000
							CHANNELS 3 Xrotation Yrotation Zrotation
							JOINT Neck
							{
								OFFSET -0.418800 17.814194 8.416900
								CHANNELS 3 Xrotation Yrotation Zrotation
								JOINT Head
								{
									OFFSET 0.000000 7.031097 3.806800
									CHANNELS 3 Xrotation Yrotation Zrotation
									JOINT HeadTop_End
									{
										OFFSET 0.000000 24.646606 12.978600
										CHANNELS 3 Xrotation Yrotation Zrotation
										End Site
										{
											OFFSET 0 0 0
										}
									}
								}
							}
						}
						JOINT LeftShoulder_virtual
						{
							OFFSET 0.000000 0.000000 0.000000
							CHANNELS 3 Xrotation Yrotation Zrotation
							JOINT LeftShoulder
							{
								OFFSET 8.476499 7.247704 -3.868750
								CHANNELS 3 Xrotation Yrotation Zrotation
								JOINT LeftShoulder_split
								{
									OFFSET 8.476499 7.247704 -3.868750
									CHANNELS 3 Xrotation Yrotation Zrotation
									JOINT LeftArm
									{
										OFFSET 9.308998 -2.777710 0.208600
										CHANNELS 3 Xrotation Yrotation Zrotation
										JOINT LeftForeArm
										{
											OFFSET 29.972298 0.000000 0.000000
											CHANNELS 3 Xrotation Yrotation Zrotation
											JOINT LeftHand
											{
												OFFSET 26.026505 0.000000 0.000000
												CHANNELS 3 Xrotation Yrotation Zrotation
												End Site
												{
													OFFSET 0 0 0
												}
											}
										}
									}
								}
							}
						}
						JOINT RightShoulder_virtual
						{
							OFFSET 0.000000 0.000000 0.000000
							CHANNELS 3 Xrotation Yrotation Zrotation
							JOINT RightShoulder
							{
								OFFSET -7.570500 7.247704 -3.868750
								CHANNELS 3 Xrotation Yrotation Zrotation
								JOINT RightShoulder_split
								{
									OFFSET -7.570500 7.247704 -3.868750
									CHANNELS 3 Xrotation Yrotation Zrotation
									JOINT RightArm
									{
										OFFSET -9.308998 -2.777710 0.208500
										CHANNELS 3 Xrotation Yrotation Zrotation
										JOINT RightForeArm
										{
											OFFSET -29.972300 0.000000 0.000000
											CHANNELS 3 Xrotation Yrotation Zrotation
											JOINT RightHand
											{
												OFFSET -26.026505 0.000000 0.000000
												CHANNELS 3 Xrotation Yrotation Zrotation
												End Site
												{
													OFFSET 0 0 0
												}
											}
										}
									}
								}
							}
						}
					}
				}
			}
		}
	}
}
MOTION
Frames: 6
Frame Time: 0.03333333
-1.753741 91.538803 1.283810 0.000000 0.000000 0.000000 -7.177813 7.358931 -0.594022 -14.064677 13.613196 14.415806 22.312363 1.502368 5.163515 -3.040325 -12.013169 -10.727563 -1.588254 0.569892 -1.225006 0.000000 0.000000 0.000000 -7.317056 9.112807 -0.548230 6.065680 -9.128913 3.135386 17.910228 -6.940359 -6.639940 -13.993645 -17.212507 5.431600 -6.659790 -0.320691 -0.444860 0.000000 0.000000 0.000000 -6.816390 7.258546 -1.061634 2.677984 0.576831 4.486344 2.243437 0.487576 2.883457 0.844643 -1.402062 -0.104896 0.000000 0.000000 0.000000 1.691363 0.752568 2.847717 12.365620 -0.786070 -1.305510 3.250591 -10.631605 -7.641009 0.000000 0.000000 0.000000 1.403514 0.772630 2.691176 2.123929 -14.611651 -11.832624 -0.352015 0.174407 -2.497847 4.184552 -3.198445 -70.053132 -1.714276 -1.139350 -0.272324 0.000000 0.000000 0.000000 1.382219 0.534772 2.895585 1.914820 8.869672 18.979465 0.941892 3.989467 -2.069189 25.103409 7.110845 58.923414 0.842187 7.114684 0.645903 0.000000 0.000000 0.000000 
-1.644281 91.800308 1.318417 0.000000 0.000000 0.000000 -6.811556 6.728565 -0.663376 -13.934727 13.991193 14.195807 21.667454 1.256946 5.023690 -2.939379 -11.099001 -10.525346 -1.491124 0.546576 -1.261270 0.000000 0.000000 0.000000 -6.972342 8.393257 -0.641672 5.653795 -9.185045 2.994430 17.440950 -6.865873 -6.635701 -13.471977 -16.423250 5.537070 -6.729054 -0.277953 -0.433974 0.000000 0.000000 0.000000 -6.363805 6.756285 -1.117133 2.602217 0.456177 4.493619 2.328486 0.354675 2.868768 0.873592 -1.419420 -0.107646 0.000000 0.000000 0.000000 1.815159 0.579539 2.834507 12.162668 -0.540323 -1.197062 2.406302 -9.507815 -7.053853 0.000000 0.000000 0.000000 1.433908 0.598988 2.640360 2.129197 -14.817544 -12.139953 -0.407420 0.314603 -2.284563 4.548906 -2.134333 -70.270407 -1.630767 -0.890459 -0.167709 0.000000 0.000000 0.000000 1.491516 0.369943 2.901372 1.985183 8.193779 18.765436 0.626599 3.860367 -2.190670 27.128714 7.197335 58.067741 0.845629 6.968952 0.557824 0.000000 0.000000 0.000000 
-1.540371 92.055870 1.319221 0.000000 0.000000 0.000000 -6.442274 5.843787 -0.804757 -13.757356 14.293659 14.069451 21.042338 1.035444 4.855026 -2.942776 -9.957559 -10.378443 -1.393892 0.525672 -1.322471 0.000000 0.000000 0.000000 -6.614331 7.459805 -0.802530 5.216984 -9.292274 2.858500 16.933176 -6.786503 -6.566847 -12.943036 -15.369997 5.592247 -6.736120 -0.235189 -0.401031 0.000000 0.000000 0.000000 -5.904568 6.016787 -1.240003 2.558011 0.366949 4.503080 2.435682 0.247425 2.871168 0.912328 -1.286154 -0.098760 0.000000 0.000000 0.000000 1.929679 0.424079 2.845763 11.892665 -0.278976 -1.075527 1.577716 -8.285995 -6.462742 0.000000 0.000000 0.000000 1.469247 0.450604 2.598568 2.138539 -14.973159 -12.382155 -0.546094 0.526619 -2.094779 4.911759 -1.295871 -70.575470 -1.577515 -0.639210 -0.105389 0.000000 0.000000 0.000000 1.602474 0.234405 2.919085 2.024792 7.788509 18.613169 0.288137 3.667013 -2.201627 27.717145 6.607827 57.518608 0.738389 6.354037 0.560312 0.000000 0.000000 0.000000 
-1.451317 92.293510 1.275166 0.000000 0.000000 0.000000 -6.078256 4.803128 -1.002707 -13.562601 14.481466 14.014051 20.454922 0.810141 4.671811 -3.011574 -8.656983 -10.309247 -1.330442 0.507346 -1.398907 0.000000 0.000000 0.000000 -6.250888 6.383554 -1.016010 4.779442 -9.441745 2.736673 16.381575 -6.732831 -6.442845 -12.413550 -14.115283 5.585191 -6.664529 -0.200679 -0.351382 0.000000 0.000000 0.000000 -5.463091 5.070581 -1.428557 2.534091 0.309251 4.511666 2.561214 0.165029 2.884879 0.927795 -1.084348 -0.077586 0.000000 0.000000 0.000000 2.033594 0.300052 2.873246 11.539967 -0.010652 -0.933876 0.765441 -6.988897 -5.868671 0.000000 0.000000 0.000000 1.514651 0.334409 2.568599 2.159967 -15.074977 -12.518299 -0.737450 0.680124 -1.924938 5.333297 -0.849162 -70.910662 -1.557764 -0.481961 -0.101233 0.000000 0.000000 0.000000 1.697121 0.138598 2.946199 2.027303 7.652611 18.564108 0.094633 3.447913 -2.160946 26.932167 5.628096 57.265713 0.606964 5.495001 0.618074 0.000000 0.000000 0.000000 
-1.379140 92.521774 1.201275 0.000000 0.000000 0.000000 -5.722998 3.681241 -1.235999 -13.353768 14.570545 14.001783 19.889275 0.567386 4.481805 -3.078343 -7.283842 -10.320956 -1.315493 0.491669 -1.468109 0.000000 0.000000 0.000000 -5.890746 5.190785 -1.259774 4.343827 -9.613944 2.635306 15.780922 -6.712520 -6.274607 -11.873720 -12.736662 5.555069 -6.601516 -0.181588 -0.295130 0.000000 0.000000 0.000000 -5.066735 3.980491 -1.662896 2.520568 0.274538 4.513477 2.698321 0.099329 2.899218 0.922268 -0.913859 -0.077115 0.000000 0.000000 0.000000 2.128251 0.210913 2.901622 11.139888 0.249996 -0.761687 -0.005791 -5.666097 -5.269205 0.000000 0.000000 0.000000 1.577653 0.251400 2.550419 2.202993 -15.112787 -12.534937 -0.957569 0.705768 -1.798380 5.811948 -0.840514 -71.227439 -1.583141 -0.497587 -0.147905 0.000000 0.000000 0.000000 1.782930 0.077004 2.965590 1.990516 7.696033 18.568224 0.136690 3.277836 -2.100703 25.190125 4.717835 57.139819 0.494809 4.850982 0.687960 0.000000 0.000000 0.000000 
-1.321553 92.746246 1.100964 0.000000 0.000000 0.000000 -5.375306 2.547236 -1.475563 -13.135156 14.595033 14.005412 19.325759 0.313447 4.280118 -3.088945 -5.909536 -10.386834 -1.308732 0.474259 -1.524316 0.000000 0.000000 0.000000 -5.544751 3.954574 -1.510984 3.947840 -9.794156 2.547586 15.120960 -6.734874 -6.079979 -11.302984 -11.302275 5.523748 -6.596776 -0.178175 -0.242623 0.000000 0.000000 0.000000 -4.723661 2.822474 -1.909048 2.509140 0.251922 4.507038 2.836757 0.038173 2.904863 0.872446 -0.841684 -0.066746 0.000000 0.000000 0.000000 2.216600 0.149493 2.914079 10.741163 0.499163 -0.569753 -0.723797 -4.356161 -4.657371 0.000000 0.000000 0.000000 1.663998 0.192308 2.538918 2.264291 -15.107347 -12.447055 -1.182267 0.633246 -1.725648 6.287949 -1.217839 -71.488947 -1.637048 -0.657201 -0.222070 0.000000 0.000000 0.000000 1.861532 0.039957 2.964645 1.925929 7.873097 18.563978 0.417837 3.226951 -2.092306 23.013796 4.424301 56.974146 0.443268 4.773442 0.723188 0.000000 0.000000 0.000000 
